%TF.GenerationSoftware,KiCad,Pcbnew,(7.0.0-0)*%
%TF.CreationDate,2023-12-08T16:48:37+03:00*%
%TF.ProjectId,keyb,6b657962-2e6b-4696-9361-645f70636258,rev?*%
%TF.SameCoordinates,Original*%
%TF.FileFunction,Soldermask,Top*%
%TF.FilePolarity,Negative*%
%FSLAX46Y46*%
G04 Gerber Fmt 4.6, Leading zero omitted, Abs format (unit mm)*
G04 Created by KiCad (PCBNEW (7.0.0-0)) date 2023-12-08 16:48:37*
%MOMM*%
%LPD*%
G01*
G04 APERTURE LIST*
%ADD10C,2.000000*%
%ADD11C,1.400000*%
%ADD12O,1.400000X1.400000*%
%ADD13R,1.800000X1.800000*%
%ADD14C,1.800000*%
%ADD15R,1.700000X1.700000*%
%ADD16O,1.700000X1.700000*%
%ADD17R,1.600000X1.600000*%
%ADD18O,1.600000X1.600000*%
%ADD19C,1.600000*%
G04 APERTURE END LIST*
D10*
%TO.C,SW23*%
X140011500Y-100793500D03*
X146511500Y-100793500D03*
X140011500Y-105293500D03*
X146511500Y-105293500D03*
%TD*%
%TO.C,SW18*%
X90011500Y-100793500D03*
X96511500Y-100793500D03*
X90011500Y-105293500D03*
X96511500Y-105293500D03*
%TD*%
%TO.C,SW34*%
X170011500Y-100793500D03*
X176511500Y-100793500D03*
X170011500Y-105293500D03*
X176511500Y-105293500D03*
%TD*%
%TO.C,SW68*%
X74261500Y-133043500D03*
X80761500Y-133043500D03*
X74261500Y-137543500D03*
X80761500Y-137543500D03*
%TD*%
D11*
%TO.C,R11*%
X174750000Y-148810000D03*
D12*
X174749999Y-141189999D03*
%TD*%
D10*
%TO.C,SW19*%
X100011500Y-100793500D03*
X106511500Y-100793500D03*
X100011500Y-105293500D03*
X106511500Y-105293500D03*
%TD*%
%TO.C,SW20*%
X110011500Y-100793500D03*
X116511500Y-100793500D03*
X110011500Y-105293500D03*
X116511500Y-105293500D03*
%TD*%
%TO.C,SW76*%
X154261500Y-133043500D03*
X160761500Y-133043500D03*
X154261500Y-137543500D03*
X160761500Y-137543500D03*
%TD*%
%TO.C,SW12*%
X130011500Y-90000000D03*
X136511500Y-90000000D03*
X130011500Y-94500000D03*
X136511500Y-94500000D03*
%TD*%
%TO.C,SW82*%
X159011500Y-143793500D03*
X165511500Y-143793500D03*
X159011500Y-148293500D03*
X165511500Y-148293500D03*
%TD*%
D11*
%TO.C,R13*%
X137500000Y-148750000D03*
D12*
X137499999Y-141129999D03*
%TD*%
D10*
%TO.C,SW46*%
X114261500Y-111293500D03*
X120761500Y-111293500D03*
X114261500Y-115793500D03*
X120761500Y-115793500D03*
%TD*%
%TO.C,SW67*%
X64261500Y-133043500D03*
X70761500Y-133043500D03*
X64261500Y-137543500D03*
X70761500Y-137543500D03*
%TD*%
%TO.C,SW43*%
X194750000Y-90000000D03*
X201250000Y-90000000D03*
X194750000Y-94500000D03*
X201250000Y-94500000D03*
%TD*%
D11*
%TO.C,R2*%
X76000000Y-149000000D03*
D12*
X75999999Y-141379999D03*
%TD*%
D10*
%TO.C,SW70*%
X94261500Y-133043500D03*
X100761500Y-133043500D03*
X94261500Y-137543500D03*
X100761500Y-137543500D03*
%TD*%
%TO.C,SW56*%
X70011500Y-122293500D03*
X76511500Y-122293500D03*
X70011500Y-126793500D03*
X76511500Y-126793500D03*
%TD*%
%TO.C,SW72*%
X114261500Y-133043500D03*
X120761500Y-133043500D03*
X114261500Y-137543500D03*
X120761500Y-137543500D03*
%TD*%
%TO.C,SW14*%
X150000000Y-90000000D03*
X156500000Y-90000000D03*
X150000000Y-94500000D03*
X156500000Y-94500000D03*
%TD*%
%TO.C,SW28*%
X206011500Y-143793500D03*
X212511500Y-143793500D03*
X206011500Y-148293500D03*
X212511500Y-148293500D03*
%TD*%
%TO.C,SW60*%
X110011500Y-122293500D03*
X116511500Y-122293500D03*
X110011500Y-126793500D03*
X116511500Y-126793500D03*
%TD*%
%TO.C,SW77*%
X164261500Y-133043500D03*
X170761500Y-133043500D03*
X164261500Y-137543500D03*
X170761500Y-137543500D03*
%TD*%
D11*
%TO.C,R10*%
X169750000Y-148810000D03*
D12*
X169749999Y-141189999D03*
%TD*%
D10*
%TO.C,SW73*%
X124261500Y-133043500D03*
X130761500Y-133043500D03*
X124261500Y-137543500D03*
X130761500Y-137543500D03*
%TD*%
%TO.C,SW83*%
X184750000Y-90000000D03*
X191250000Y-90000000D03*
X184750000Y-94500000D03*
X191250000Y-94500000D03*
%TD*%
%TO.C,SW65*%
X160011500Y-122293500D03*
X166511500Y-122293500D03*
X160011500Y-126793500D03*
X166511500Y-126793500D03*
%TD*%
%TO.C,SW79*%
X60011500Y-143793500D03*
X66511500Y-143793500D03*
X60011500Y-148293500D03*
X66511500Y-148293500D03*
%TD*%
D13*
%TO.C,D1*%
X206974999Y-92499999D03*
D14*
X209515000Y-92500000D03*
%TD*%
D10*
%TO.C,SW75*%
X144261500Y-133043500D03*
X150761500Y-133043500D03*
X144261500Y-137543500D03*
X150761500Y-137543500D03*
%TD*%
%TO.C,SW74*%
X134261500Y-133043500D03*
X140761500Y-133043500D03*
X134261500Y-137543500D03*
X140761500Y-137543500D03*
%TD*%
%TO.C,SW36*%
X191011500Y-100793500D03*
X197511500Y-100793500D03*
X191011500Y-105293500D03*
X197511500Y-105293500D03*
%TD*%
%TO.C,SW48*%
X134261500Y-111293500D03*
X140761500Y-111293500D03*
X134261500Y-115793500D03*
X140761500Y-115793500D03*
%TD*%
%TO.C,SW55*%
X60011500Y-122293500D03*
X66511500Y-122293500D03*
X60011500Y-126793500D03*
X66511500Y-126793500D03*
%TD*%
%TO.C,SW6*%
X48500000Y-100793500D03*
X55000000Y-100793500D03*
X48500000Y-105293500D03*
X55000000Y-105293500D03*
%TD*%
%TO.C,SW30*%
X201011500Y-111293500D03*
X207511500Y-111293500D03*
X201011500Y-115793500D03*
X207511500Y-115793500D03*
%TD*%
%TO.C,SW47*%
X124261500Y-111293500D03*
X130761500Y-111293500D03*
X124261500Y-115793500D03*
X130761500Y-115793500D03*
%TD*%
D11*
%TO.C,R7*%
X203000000Y-105750000D03*
D12*
X202999999Y-98129999D03*
%TD*%
D10*
%TO.C,SW71*%
X104261500Y-133043500D03*
X110761500Y-133043500D03*
X104261500Y-137543500D03*
X110761500Y-137543500D03*
%TD*%
%TO.C,SW78*%
X48511500Y-143793500D03*
X55011500Y-143793500D03*
X48511500Y-148293500D03*
X55011500Y-148293500D03*
%TD*%
D15*
%TO.C,J2*%
X83438999Y-77342999D03*
D16*
X80898999Y-77342999D03*
X83438999Y-79882999D03*
X80898999Y-79882999D03*
X83438999Y-82422999D03*
X80898999Y-82422999D03*
%TD*%
D10*
%TO.C,SW11*%
X120011500Y-90000000D03*
X126511500Y-90000000D03*
X120011500Y-94500000D03*
X126511500Y-94500000D03*
%TD*%
%TO.C,SW64*%
X150011500Y-122293500D03*
X156511500Y-122293500D03*
X150011500Y-126793500D03*
X156511500Y-126793500D03*
%TD*%
%TO.C,SW7*%
X60011500Y-100793500D03*
X66511500Y-100793500D03*
X60011500Y-105293500D03*
X66511500Y-105293500D03*
%TD*%
%TO.C,SW26*%
X196011500Y-143793500D03*
X202511500Y-143793500D03*
X196011500Y-148293500D03*
X202511500Y-148293500D03*
%TD*%
%TO.C,SW15*%
X160011500Y-90000000D03*
X166511500Y-90000000D03*
X160011500Y-94500000D03*
X166511500Y-94500000D03*
%TD*%
%TO.C,SW22*%
X130011500Y-100793500D03*
X136511500Y-100793500D03*
X130011500Y-105293500D03*
X136511500Y-105293500D03*
%TD*%
%TO.C,SW45*%
X104261500Y-111293500D03*
X110761500Y-111293500D03*
X104261500Y-115793500D03*
X110761500Y-115793500D03*
%TD*%
%TO.C,SW32*%
X191023000Y-122087000D03*
X197523000Y-122087000D03*
X191023000Y-126587000D03*
X197523000Y-126587000D03*
%TD*%
D11*
%TO.C,R8*%
X177250000Y-148810000D03*
D12*
X177249999Y-141189999D03*
%TD*%
D10*
%TO.C,SW44*%
X94261500Y-111293500D03*
X100761500Y-111293500D03*
X94261500Y-115793500D03*
X100761500Y-115793500D03*
%TD*%
D17*
%TO.C,RN1*%
X160019999Y-81787999D03*
D18*
X162559999Y-81787999D03*
X165099999Y-81787999D03*
X167639999Y-81787999D03*
X170179999Y-81787999D03*
X172719999Y-81787999D03*
X175259999Y-81787999D03*
X177799999Y-81787999D03*
X180339999Y-81787999D03*
%TD*%
D10*
%TO.C,SW39*%
X74261500Y-111293500D03*
X80761500Y-111293500D03*
X74261500Y-115793500D03*
X80761500Y-115793500D03*
%TD*%
D17*
%TO.C,U3*%
X111886999Y-84073999D03*
D18*
X114426999Y-84073999D03*
X116966999Y-84073999D03*
X119506999Y-84073999D03*
X122046999Y-84073999D03*
X124586999Y-84073999D03*
X127126999Y-84073999D03*
X129666999Y-84073999D03*
X129666999Y-76453999D03*
X127126999Y-76453999D03*
X124586999Y-76453999D03*
X122046999Y-76453999D03*
X119506999Y-76453999D03*
X116966999Y-76453999D03*
X114426999Y-76453999D03*
X111886999Y-76453999D03*
%TD*%
D10*
%TO.C,SW5*%
X90011500Y-90000000D03*
X96511500Y-90000000D03*
X90011500Y-94500000D03*
X96511500Y-94500000D03*
%TD*%
D11*
%TO.C,R19*%
X142500000Y-148750000D03*
D12*
X142499999Y-141129999D03*
%TD*%
D11*
%TO.C,R20*%
X172250000Y-148810000D03*
D12*
X172249999Y-141189999D03*
%TD*%
D17*
%TO.C,U1*%
X48574999Y-84049999D03*
D18*
X51114999Y-84049999D03*
X53654999Y-84049999D03*
X56194999Y-84049999D03*
X58734999Y-84049999D03*
X61274999Y-84049999D03*
X63814999Y-84049999D03*
X66354999Y-84049999D03*
X68894999Y-84049999D03*
X71434999Y-84049999D03*
X71434999Y-76429999D03*
X68894999Y-76429999D03*
X66354999Y-76429999D03*
X63814999Y-76429999D03*
X61274999Y-76429999D03*
X58734999Y-76429999D03*
X56194999Y-76429999D03*
X53654999Y-76429999D03*
X51114999Y-76429999D03*
X48574999Y-76429999D03*
%TD*%
D17*
%TO.C,U2*%
X89886999Y-84073999D03*
D18*
X92426999Y-84073999D03*
X94966999Y-84073999D03*
X97506999Y-84073999D03*
X100046999Y-84073999D03*
X102586999Y-84073999D03*
X105126999Y-84073999D03*
X107666999Y-84073999D03*
X107666999Y-76453999D03*
X105126999Y-76453999D03*
X102586999Y-76453999D03*
X100046999Y-76453999D03*
X97506999Y-76453999D03*
X94966999Y-76453999D03*
X92426999Y-76453999D03*
X89886999Y-76453999D03*
%TD*%
D10*
%TO.C,SW27*%
X186011500Y-143793500D03*
X192511500Y-143793500D03*
X186011500Y-148293500D03*
X192511500Y-148293500D03*
%TD*%
%TO.C,SW63*%
X140011500Y-122293500D03*
X146511500Y-122293500D03*
X140011500Y-126793500D03*
X146511500Y-126793500D03*
%TD*%
%TO.C,SW58*%
X90011500Y-122293500D03*
X96511500Y-122293500D03*
X90011500Y-126793500D03*
X96511500Y-126793500D03*
%TD*%
%TO.C,SW31*%
X211023000Y-122087000D03*
X217523000Y-122087000D03*
X211023000Y-126587000D03*
X217523000Y-126587000D03*
%TD*%
%TO.C,SW41*%
X201011500Y-122087000D03*
X207511500Y-122087000D03*
X201011500Y-126587000D03*
X207511500Y-126587000D03*
%TD*%
D15*
%TO.C,J1*%
X201949999Y-81974999D03*
D16*
X204489999Y-81974999D03*
X207029999Y-81974999D03*
X209569999Y-81974999D03*
%TD*%
D10*
%TO.C,SW51*%
X164261500Y-111293500D03*
X170761500Y-111293500D03*
X164261500Y-115793500D03*
X170761500Y-115793500D03*
%TD*%
%TO.C,SW25*%
X196011500Y-133087000D03*
X202511500Y-133087000D03*
X196011500Y-137587000D03*
X202511500Y-137587000D03*
%TD*%
%TO.C,SW10*%
X110011500Y-90000000D03*
X116511500Y-90000000D03*
X110011500Y-94500000D03*
X116511500Y-94500000D03*
%TD*%
%TO.C,SW35*%
X180011500Y-100793500D03*
X186511500Y-100793500D03*
X180011500Y-105293500D03*
X186511500Y-105293500D03*
%TD*%
%TO.C,SW50*%
X154261500Y-111293500D03*
X160761500Y-111293500D03*
X154261500Y-115793500D03*
X160761500Y-115793500D03*
%TD*%
%TO.C,SW57*%
X80011500Y-122293500D03*
X86511500Y-122293500D03*
X80011500Y-126793500D03*
X86511500Y-126793500D03*
%TD*%
D17*
%TO.C,U4*%
X137149999Y-84063999D03*
D18*
X139689999Y-84063999D03*
X142229999Y-84063999D03*
X144769999Y-84063999D03*
X147309999Y-84063999D03*
X149849999Y-84063999D03*
X152389999Y-84063999D03*
X154929999Y-84063999D03*
X154929999Y-76443999D03*
X152389999Y-76443999D03*
X149849999Y-76443999D03*
X147309999Y-76443999D03*
X144769999Y-76443999D03*
X142229999Y-76443999D03*
X139689999Y-76443999D03*
X137149999Y-76443999D03*
%TD*%
D10*
%TO.C,SW16*%
X170000000Y-90000000D03*
X176500000Y-90000000D03*
X170000000Y-94500000D03*
X176500000Y-94500000D03*
%TD*%
%TO.C,SW52*%
X174261500Y-111293500D03*
X180761500Y-111293500D03*
X174261500Y-115793500D03*
X180761500Y-115793500D03*
%TD*%
%TO.C,SW66*%
X48500000Y-133043500D03*
X55000000Y-133043500D03*
X48500000Y-137543500D03*
X55000000Y-137543500D03*
%TD*%
%TO.C,SW9*%
X100011500Y-90000000D03*
X106511500Y-90000000D03*
X100011500Y-94500000D03*
X106511500Y-94500000D03*
%TD*%
D11*
%TO.C,R15*%
X205500000Y-105760000D03*
D12*
X205499999Y-98139999D03*
%TD*%
D10*
%TO.C,SW3*%
X70011500Y-90000000D03*
X76511500Y-90000000D03*
X70011500Y-94500000D03*
X76511500Y-94500000D03*
%TD*%
%TO.C,SW17*%
X80011500Y-100793500D03*
X86511500Y-100793500D03*
X80011500Y-105293500D03*
X86511500Y-105293500D03*
%TD*%
%TO.C,SW13*%
X140011500Y-90000000D03*
X146511500Y-90000000D03*
X140011500Y-94500000D03*
X146511500Y-94500000D03*
%TD*%
D11*
%TO.C,R14*%
X145000000Y-148750000D03*
D12*
X144999999Y-141129999D03*
%TD*%
D10*
%TO.C,SW61*%
X120011500Y-122293500D03*
X126511500Y-122293500D03*
X120011500Y-126793500D03*
X126511500Y-126793500D03*
%TD*%
D11*
%TO.C,R6*%
X179750000Y-148810000D03*
D12*
X179749999Y-141189999D03*
%TD*%
D11*
%TO.C,R18*%
X213000000Y-105750000D03*
D12*
X212999999Y-98129999D03*
%TD*%
D11*
%TO.C,R17*%
X135000000Y-148750000D03*
D12*
X134999999Y-141129999D03*
%TD*%
D10*
%TO.C,SW54*%
X48500000Y-122293500D03*
X55000000Y-122293500D03*
X48500000Y-126793500D03*
X55000000Y-126793500D03*
%TD*%
D11*
%TO.C,R4*%
X73500000Y-149000000D03*
D12*
X73499999Y-141379999D03*
%TD*%
D10*
%TO.C,SW33*%
X160011500Y-100793500D03*
X166511500Y-100793500D03*
X160011500Y-105293500D03*
X166511500Y-105293500D03*
%TD*%
%TO.C,SW37*%
X48511500Y-111543500D03*
X55011500Y-111543500D03*
X48511500Y-116043500D03*
X55011500Y-116043500D03*
%TD*%
D19*
%TO.C,C1*%
X75000000Y-83500000D03*
X75000000Y-81000000D03*
%TD*%
D10*
%TO.C,SW59*%
X100011500Y-122293500D03*
X106511500Y-122293500D03*
X100011500Y-126793500D03*
X106511500Y-126793500D03*
%TD*%
%TO.C,SW24*%
X150011500Y-100793500D03*
X156511500Y-100793500D03*
X150011500Y-105293500D03*
X156511500Y-105293500D03*
%TD*%
%TO.C,SW2*%
X60011500Y-89993500D03*
X66511500Y-89993500D03*
X60011500Y-94493500D03*
X66511500Y-94493500D03*
%TD*%
%TO.C,SW62*%
X130011500Y-122293500D03*
X136511500Y-122293500D03*
X130011500Y-126793500D03*
X136511500Y-126793500D03*
%TD*%
D11*
%TO.C,R1*%
X71000000Y-149000000D03*
D12*
X70999999Y-141379999D03*
%TD*%
D10*
%TO.C,SW29*%
X191011500Y-111293500D03*
X197511500Y-111293500D03*
X191011500Y-115793500D03*
X197511500Y-115793500D03*
%TD*%
%TO.C,SW42*%
X211011500Y-111293500D03*
X217511500Y-111293500D03*
X211011500Y-115793500D03*
X217511500Y-115793500D03*
%TD*%
%TO.C,SW84*%
X124261500Y-143793500D03*
X130761500Y-143793500D03*
X124261500Y-148293500D03*
X130761500Y-148293500D03*
%TD*%
D11*
%TO.C,R12*%
X140000000Y-148750000D03*
D12*
X139999999Y-141129999D03*
%TD*%
D10*
%TO.C,SW49*%
X144261500Y-111293500D03*
X150761500Y-111293500D03*
X144261500Y-115793500D03*
X150761500Y-115793500D03*
%TD*%
%TO.C,SW40*%
X84261500Y-111293500D03*
X90761500Y-111293500D03*
X84261500Y-115793500D03*
X90761500Y-115793500D03*
%TD*%
%TO.C,SW80*%
X84261500Y-143793500D03*
X90761500Y-143793500D03*
X84261500Y-148293500D03*
X90761500Y-148293500D03*
%TD*%
D11*
%TO.C,R5*%
X208000000Y-105750000D03*
D12*
X207999999Y-98129999D03*
%TD*%
D11*
%TO.C,R3*%
X78500000Y-149010000D03*
D12*
X78499999Y-141389999D03*
%TD*%
D13*
%TO.C,D2*%
X212224999Y-92499999D03*
D14*
X214765000Y-92500000D03*
%TD*%
D10*
%TO.C,SW1*%
X48511500Y-90043500D03*
X55011500Y-90043500D03*
X48511500Y-94543500D03*
X55011500Y-94543500D03*
%TD*%
%TO.C,SW4*%
X80011500Y-90000000D03*
X86511500Y-90000000D03*
X80011500Y-94500000D03*
X86511500Y-94500000D03*
%TD*%
%TO.C,SW81*%
X148761500Y-143793500D03*
X155261500Y-143793500D03*
X148761500Y-148293500D03*
X155261500Y-148293500D03*
%TD*%
%TO.C,SW53*%
X177511500Y-125043500D03*
X184011500Y-125043500D03*
X177511500Y-129543500D03*
X184011500Y-129543500D03*
%TD*%
%TO.C,SW8*%
X70011500Y-100793500D03*
X76511500Y-100793500D03*
X70011500Y-105293500D03*
X76511500Y-105293500D03*
%TD*%
%TO.C,SW38*%
X64261500Y-111293500D03*
X70761500Y-111293500D03*
X64261500Y-115793500D03*
X70761500Y-115793500D03*
%TD*%
%TO.C,SW21*%
X120011500Y-100793500D03*
X126511500Y-100793500D03*
X120011500Y-105293500D03*
X126511500Y-105293500D03*
%TD*%
D11*
%TO.C,R9*%
X210500000Y-105750000D03*
D12*
X210499999Y-98129999D03*
%TD*%
D10*
%TO.C,SW69*%
X84261500Y-133043500D03*
X90761500Y-133043500D03*
X84261500Y-137543500D03*
X90761500Y-137543500D03*
%TD*%
D11*
%TO.C,R16*%
X215500000Y-98125000D03*
D12*
X215499999Y-105744999D03*
%TD*%
M02*
