%TF.GenerationSoftware,KiCad,Pcbnew,(7.0.0-0)*%
%TF.CreationDate,2023-12-08T16:48:37+03:00*%
%TF.ProjectId,keyb,6b657962-2e6b-4696-9361-645f70636258,rev?*%
%TF.SameCoordinates,Original*%
%TF.FileFunction,Profile,NP*%
%FSLAX46Y46*%
G04 Gerber Fmt 4.6, Leading zero omitted, Abs format (unit mm)*
G04 Created by KiCad (PCBNEW (7.0.0-0)) date 2023-12-08 16:48:37*
%MOMM*%
%LPD*%
G01*
G04 APERTURE LIST*
%TA.AperFunction,Profile*%
%ADD10C,0.100000*%
%TD*%
%TA.AperFunction,Profile*%
%ADD11C,0.200000*%
%TD*%
G04 APERTURE END LIST*
D10*
X212307107Y-72692893D02*
G75*
G03*
X211600000Y-72400000I-707107J-707107D01*
G01*
D11*
X187500000Y-113000000D02*
G75*
G03*
X187500000Y-113000000I-1500000J0D01*
G01*
D10*
X121799977Y-152248528D02*
G75*
G03*
X121400000Y-151448528I-999977J28D01*
G01*
X216200000Y-143800000D02*
X216200000Y-152400000D01*
D11*
X202300000Y-75000000D02*
G75*
G03*
X202300000Y-75000000I-1500000J0D01*
G01*
D10*
X46000000Y-152400000D02*
X46000000Y-72400000D01*
X121800000Y-152400000D02*
X216200000Y-152400000D01*
X220000000Y-142800000D02*
X217200000Y-142800000D01*
X220000000Y-95400000D02*
X220000000Y-142800000D01*
X218365685Y-78834315D02*
X212307107Y-72692893D01*
X117599996Y-147648528D02*
X121400000Y-151448528D01*
X98800000Y-147400000D02*
X116999996Y-147400000D01*
D11*
X217750000Y-84000000D02*
G75*
G03*
X217750000Y-84000000I-1500000J0D01*
G01*
X61500000Y-134000000D02*
G75*
G03*
X61500000Y-134000000I-1500000J0D01*
G01*
D10*
X94399987Y-151448510D02*
G75*
G03*
X94000000Y-152248528I600013J-799990D01*
G01*
X217200000Y-142800000D02*
G75*
G03*
X216200000Y-143800000I0J-1000000D01*
G01*
D11*
X219178000Y-140462000D02*
G75*
G03*
X219178000Y-140462000I-1500000J0D01*
G01*
X212300000Y-75000000D02*
G75*
G03*
X212300000Y-75000000I-1500000J0D01*
G01*
D10*
X117599992Y-147648532D02*
G75*
G03*
X116999996Y-147400000I-599992J-599968D01*
G01*
X94400000Y-151448528D02*
X98200000Y-147648528D01*
X218599999Y-79400000D02*
G75*
G03*
X218365685Y-78834315I-799999J0D01*
G01*
X94000000Y-152400000D02*
X94000000Y-152248528D01*
X121800000Y-152400000D02*
X121800000Y-152248528D01*
X218600000Y-94000000D02*
X218599999Y-79400000D01*
X46000000Y-72400000D02*
X211600000Y-72400000D01*
D11*
X61500000Y-112000000D02*
G75*
G03*
X61500000Y-112000000I-1500000J0D01*
G01*
D10*
X46000000Y-152400000D02*
X94000000Y-152400000D01*
X218600000Y-94000000D02*
G75*
G03*
X220000000Y-95400000I1400000J0D01*
G01*
X98800000Y-147399992D02*
G75*
G03*
X98200000Y-147648528I0J-848508D01*
G01*
M02*
