M48
; DRILL file {KiCad (6.0.5)} date Fri Sep 23 10:40:36 2022
; FORMAT={-:-/ absolute / inch / decimal}
; #@! TF.CreationDate,2022-09-23T10:40:36+10:00
; #@! TF.GenerationSoftware,Kicad,Pcbnew,(6.0.5)
; #@! TF.FileFunction,Plated,1,2,PTH
FMAT,2
INCH
; #@! TA.AperFunction,Plated,PTH,ViaDrill
T1C0.0157
; #@! TA.AperFunction,Plated,PTH,ComponentDrill
T2C0.0276
; #@! TA.AperFunction,Plated,PTH,ComponentDrill
T3C0.0315
; #@! TA.AperFunction,Plated,PTH,ComponentDrill
T4C0.0354
; #@! TA.AperFunction,Plated,PTH,ComponentDrill
T5C0.0394
; #@! TA.AperFunction,Plated,PTH,ComponentDrill
T6C0.0433
%
G90
G05
T1
X2.248Y-4.2677
X2.3522Y-3.0636
X2.6363Y-3.3999
X2.8238Y-3.7389
X2.8753Y-3.2156
X2.9763Y-4.2944
X3.711Y-3.0652
X3.9151Y-3.1852
X4.3633Y-3.3855
X4.3908Y-5.0441
X4.7175Y-3.8679
X4.7498Y-5.0935
X5.1753Y-5.1594
X5.1901Y-3.9017
X5.1976Y-5.7861
X5.2526Y-4.8761
X5.2618Y-5.8544
X5.2851Y-4.4946
X5.5102Y-3.8377
X5.5432Y-4.9262
X5.6535Y-3.0709
X5.7256Y-3.1651
X5.7948Y-3.1057
X5.8161Y-5.5341
X6.0839Y-4.104
X6.1534Y-5.1771
X6.3543Y-3.874
X6.7703Y-5.4744
X6.8228Y-4.874
X7.2265Y-4.3225
X7.3307Y-4.6614
X7.5054Y-5.7574
X7.8493Y-3.6334
X7.8549Y-3.8624
X7.9046Y-3.8091
X8.2366Y-3.9288
T2
X2.7953Y-5.5661
X2.7953Y-5.8661
X2.8937Y-5.5661
X2.8937Y-5.8661
X2.9921Y-5.5661
X2.9921Y-5.8661
X3.0906Y-5.5665
X3.0906Y-5.8665
X5.315Y-5.5563
X5.315Y-5.8563
X5.4134Y-5.5563
X5.4134Y-5.8563
X5.5118Y-5.5563
X5.5118Y-5.8563
X5.6102Y-5.5563
X5.6102Y-5.8563
X5.7087Y-5.5563
X5.7087Y-5.8563
X6.6831Y-5.5587
X6.6831Y-5.8587
X6.7815Y-5.5587
X6.7815Y-5.8587
X6.8799Y-5.5587
X6.8799Y-5.8587
X6.9783Y-5.5587
X6.9783Y-5.8587
X7.0768Y-5.5587
X7.0768Y-5.8587
X7.9921Y-3.8634
X7.9921Y-4.1634
X8.0906Y-3.8638
X8.0906Y-4.1638
X8.189Y-3.8634
X8.189Y-4.1634
X8.2874Y-3.8634
X8.2874Y-4.1634
X8.3858Y-3.8634
X8.3858Y-4.1634
X8.4843Y-3.8632
X8.4843Y-4.1632
T3
X1.9124Y-3.0091
X1.9124Y-3.3091
X2.0124Y-3.0091
X2.0124Y-3.3091
X2.1124Y-3.0091
X2.1124Y-3.3091
X2.2124Y-3.0091
X2.2124Y-3.3091
X2.3124Y-3.0091
X2.3124Y-3.3091
X2.4124Y-3.0091
X2.4124Y-3.3091
X2.5124Y-3.0091
X2.5124Y-3.3091
X2.6124Y-3.0091
X2.6124Y-3.3091
X2.7124Y-3.0091
X2.7124Y-3.3091
X2.8124Y-3.0091
X2.8124Y-3.3091
X2.9528Y-3.189
X2.9528Y-3.2874
X3.3661Y-3.0071
X3.3661Y-3.3071
X3.4661Y-3.0071
X3.4661Y-3.3071
X3.5661Y-3.0071
X3.5661Y-3.3071
X3.6661Y-3.0071
X3.6661Y-3.3071
X3.7661Y-3.0071
X3.7661Y-3.3071
X3.8661Y-3.0071
X3.8661Y-3.3071
X3.9661Y-3.0071
X3.9661Y-3.3071
X4.0661Y-3.0071
X4.0661Y-3.3071
X4.2323Y-3.0071
X4.2323Y-3.3071
X4.3323Y-3.0071
X4.3323Y-3.3071
X4.4323Y-3.0071
X4.4323Y-3.3071
X4.5323Y-3.0071
X4.5323Y-3.3071
X4.6323Y-3.0071
X4.6323Y-3.3071
X4.7323Y-3.0071
X4.7323Y-3.3071
X4.8323Y-3.0071
X4.8323Y-3.3071
X4.9323Y-3.0071
X4.9323Y-3.3071
X5.0984Y-3.0071
X5.0984Y-3.3071
X5.1984Y-3.0071
X5.1984Y-3.3071
X5.2984Y-3.0071
X5.2984Y-3.3071
X5.3984Y-3.0071
X5.3984Y-3.3071
X5.4984Y-3.0071
X5.4984Y-3.3071
X5.5984Y-3.0071
X5.5984Y-3.3071
X5.6984Y-3.0071
X5.6984Y-3.3071
X5.7984Y-3.0071
X5.7984Y-3.3071
X5.9646Y-3.0071
X5.9646Y-3.3071
X6.0646Y-3.0071
X6.0646Y-3.3071
X6.1646Y-3.0071
X6.1646Y-3.3071
X6.2646Y-3.0071
X6.2646Y-3.3071
X6.3646Y-3.0071
X6.3646Y-3.3071
X6.4646Y-3.0071
X6.4646Y-3.3071
X6.5646Y-3.0071
X6.5646Y-3.3071
X6.6646Y-3.0071
X6.6646Y-3.3071
X6.8366Y-3.0591
X6.8366Y-3.2461
X6.9366Y-3.0591
X6.9366Y-3.2461
X7.0366Y-3.0591
X7.0366Y-3.2461
X7.1366Y-3.0591
X7.1366Y-3.2461
X7.2366Y-3.0591
X7.2366Y-3.2461
X7.3366Y-3.0591
X7.3366Y-3.2461
X7.4366Y-3.0591
X7.4366Y-3.2461
X7.5366Y-3.0591
X7.5366Y-3.2461
X7.6366Y-3.0591
X7.6366Y-3.2461
T4
X8.1486Y-3.6417
X8.2486Y-3.6417
X8.3553Y-3.6417
X8.4553Y-3.6417
T5
X3.1004Y-3.0404
X3.1004Y-3.1404
X3.1004Y-3.2404
X3.2004Y-3.0404
X3.2004Y-3.1404
X3.2004Y-3.2404
X7.9508Y-3.2274
X8.0508Y-3.2274
X8.1508Y-3.2274
X8.2508Y-3.2274
T6
X1.9094Y-3.9682
X1.9094Y-4.1454
X1.9094Y-4.8147
X1.9094Y-4.9919
X1.9094Y-5.2379
X1.9094Y-5.4151
X1.9099Y-3.545
X1.9099Y-3.7222
X1.9099Y-4.3915
X1.9099Y-4.5686
X1.9099Y-5.6612
X1.9099Y-5.8383
X2.1654Y-3.9682
X2.1654Y-4.1454
X2.1654Y-4.8147
X2.1654Y-4.9919
X2.1654Y-5.2379
X2.1654Y-5.4151
X2.1658Y-3.545
X2.1658Y-3.7222
X2.1658Y-4.3915
X2.1658Y-4.5686
X2.1658Y-5.6612
X2.1658Y-5.8383
X2.3627Y-3.5431
X2.3627Y-3.7202
X2.3627Y-3.9682
X2.3627Y-4.1454
X2.3627Y-4.8147
X2.3627Y-4.9919
X2.3627Y-5.6612
X2.3627Y-5.8383
X2.53Y-4.3816
X2.53Y-4.5588
X2.53Y-5.2379
X2.53Y-5.4151
X2.6186Y-3.5431
X2.6186Y-3.7202
X2.6186Y-3.9682
X2.6186Y-4.1454
X2.6186Y-4.8147
X2.6186Y-4.9919
X2.6186Y-5.6612
X2.6186Y-5.8383
X2.7564Y-3.5433
X2.7564Y-3.7205
X2.7564Y-3.9682
X2.7564Y-4.1454
X2.7564Y-4.8147
X2.7564Y-4.9919
X2.7859Y-4.3816
X2.7859Y-4.5588
X2.7859Y-5.2379
X2.7859Y-5.4151
X2.9237Y-4.3816
X2.9237Y-4.5588
X2.9237Y-5.2379
X2.9237Y-5.4151
X3.0123Y-3.5433
X3.0123Y-3.7205
X3.0123Y-3.9682
X3.0123Y-4.1454
X3.0123Y-4.8147
X3.0123Y-4.9919
X3.1501Y-3.5433
X3.1501Y-3.7205
X3.1501Y-3.9682
X3.1501Y-4.1454
X3.1501Y-4.8147
X3.1501Y-4.9919
X3.1796Y-4.3816
X3.1796Y-4.5588
X3.1796Y-5.2379
X3.1796Y-5.4151
X3.3174Y-4.3816
X3.3174Y-4.5588
X3.3174Y-5.2379
X3.3174Y-5.4151
X3.3174Y-5.6612
X3.3174Y-5.8383
X3.406Y-3.5433
X3.406Y-3.7205
X3.406Y-3.9682
X3.406Y-4.1454
X3.406Y-4.8147
X3.406Y-4.9919
X3.5438Y-3.5433
X3.5438Y-3.7205
X3.5438Y-3.9682
X3.5438Y-4.1454
X3.5438Y-4.8147
X3.5438Y-4.9919
X3.5733Y-4.3816
X3.5733Y-4.5588
X3.5733Y-5.2379
X3.5733Y-5.4151
X3.5733Y-5.6612
X3.5733Y-5.8383
X3.7111Y-4.3816
X3.7111Y-4.5588
X3.7111Y-5.2379
X3.7111Y-5.4151
X3.7997Y-3.5433
X3.7997Y-3.7205
X3.7997Y-3.9682
X3.7997Y-4.1454
X3.7997Y-4.8147
X3.7997Y-4.9919
X3.9375Y-3.5433
X3.9375Y-3.7205
X3.9375Y-3.9682
X3.9375Y-4.1454
X3.9375Y-4.8147
X3.9375Y-4.9919
X3.967Y-4.3816
X3.967Y-4.5588
X3.967Y-5.2379
X3.967Y-5.4151
X4.1048Y-4.3816
X4.1048Y-4.5588
X4.1048Y-5.2379
X4.1048Y-5.4151
X4.1934Y-3.5433
X4.1934Y-3.7205
X4.1934Y-3.9682
X4.1934Y-4.1454
X4.1934Y-4.8147
X4.1934Y-4.9919
X4.3312Y-3.5433
X4.3312Y-3.7205
X4.3312Y-3.9682
X4.3312Y-4.1454
X4.3312Y-4.8147
X4.3312Y-4.9919
X4.3607Y-4.3816
X4.3607Y-4.5588
X4.3607Y-5.2379
X4.3607Y-5.4151
X4.4985Y-4.3816
X4.4985Y-4.5588
X4.4985Y-5.2379
X4.4985Y-5.4151
X4.5871Y-3.5433
X4.5871Y-3.7205
X4.5871Y-3.9682
X4.5871Y-4.1454
X4.5871Y-4.8147
X4.5871Y-4.9919
X4.7249Y-3.5433
X4.7249Y-3.7205
X4.7249Y-3.9682
X4.7249Y-4.1454
X4.7249Y-4.8147
X4.7249Y-4.9919
X4.7544Y-4.3816
X4.7544Y-4.5588
X4.7544Y-5.2379
X4.7544Y-5.4151
X4.8922Y-4.3816
X4.8922Y-4.5588
X4.8922Y-5.2379
X4.8922Y-5.4151
X4.8922Y-5.6612
X4.8922Y-5.8383
X4.9808Y-3.5433
X4.9808Y-3.7205
X4.9808Y-3.9682
X4.9808Y-4.1454
X4.9808Y-4.8147
X4.9808Y-4.9919
X5.1186Y-3.5433
X5.1186Y-3.7205
X5.1186Y-3.9682
X5.1186Y-4.1454
X5.1186Y-4.8147
X5.1186Y-4.9919
X5.1481Y-4.3816
X5.1481Y-4.5588
X5.1481Y-5.2379
X5.1481Y-5.4151
X5.1481Y-5.6612
X5.1481Y-5.8383
X5.2859Y-4.3816
X5.2859Y-4.5588
X5.2859Y-5.2379
X5.2859Y-5.4151
X5.3745Y-3.5433
X5.3745Y-3.7205
X5.3745Y-3.9682
X5.3745Y-4.1454
X5.3745Y-4.8147
X5.3745Y-4.9919
X5.5123Y-3.5433
X5.5123Y-3.7205
X5.5123Y-3.9682
X5.5123Y-4.1454
X5.5123Y-4.8147
X5.5123Y-4.9919
X5.5418Y-4.3816
X5.5418Y-4.5588
X5.5418Y-5.2379
X5.5418Y-5.4151
X5.6796Y-4.3816
X5.6796Y-4.5588
X5.6796Y-5.2379
X5.6796Y-5.4151
X5.7682Y-3.5433
X5.7682Y-3.7205
X5.7682Y-3.9682
X5.7682Y-4.1454
X5.7682Y-4.8147
X5.7682Y-4.9919
X5.8568Y-5.6612
X5.8568Y-5.8383
X5.9055Y-3.5433
X5.9055Y-3.7205
X5.906Y-3.9682
X5.906Y-4.1454
X5.906Y-4.8147
X5.906Y-4.9919
X5.9355Y-4.3816
X5.9355Y-4.5588
X5.9355Y-5.2379
X5.9355Y-5.4151
X6.0733Y-4.3816
X6.0733Y-4.5588
X6.0733Y-5.2379
X6.0733Y-5.4151
X6.1127Y-5.6612
X6.1127Y-5.8383
X6.1614Y-3.5433
X6.1614Y-3.7205
X6.1619Y-3.9682
X6.1619Y-4.1454
X6.1619Y-4.8147
X6.1619Y-4.9919
X6.2603Y-5.6612
X6.2603Y-5.8383
X6.2997Y-3.5433
X6.2997Y-3.7205
X6.2997Y-3.9682
X6.2997Y-4.1454
X6.2997Y-4.8147
X6.2997Y-4.9919
X6.3292Y-4.3816
X6.3292Y-4.5588
X6.3292Y-5.2379
X6.3292Y-5.4151
X6.467Y-4.3816
X6.467Y-4.5588
X6.467Y-5.2379
X6.467Y-5.4151
X6.5162Y-5.6612
X6.5162Y-5.8383
X6.5556Y-3.5433
X6.5556Y-3.7205
X6.5556Y-3.9682
X6.5556Y-4.1454
X6.5556Y-4.8147
X6.5556Y-4.9919
X6.6929Y-3.5433
X6.6929Y-3.7205
X6.6934Y-3.9682
X6.6934Y-4.1454
X6.7229Y-4.3816
X6.7229Y-4.5588
X6.7229Y-5.2379
X6.7229Y-5.4151
X6.8607Y-4.3816
X6.8607Y-4.5588
X6.9488Y-3.5433
X6.9488Y-3.7205
X6.9493Y-3.9682
X6.9493Y-4.1454
X6.9886Y-4.923
X6.9886Y-5.1001
X7.0871Y-3.9682
X7.0871Y-4.1454
X7.1166Y-4.3816
X7.1166Y-4.5588
X7.2445Y-4.923
X7.2445Y-5.1001
X7.2736Y-3.5433
X7.2736Y-3.7205
X7.3233Y-5.6612
X7.3233Y-5.8383
X7.343Y-3.9682
X7.343Y-4.1454
X7.5201Y-3.9682
X7.5201Y-4.1454
X7.5201Y-4.3816
X7.5201Y-4.5588
X7.5206Y-4.8066
X7.5206Y-4.9837
X7.5295Y-3.5433
X7.5295Y-3.7205
X7.5792Y-5.6612
X7.5792Y-5.8383
X7.6673Y-3.5433
X7.6673Y-3.7205
X7.717Y-5.2396
X7.717Y-5.4168
X7.717Y-5.6612
X7.717Y-5.8383
X7.776Y-3.9682
X7.776Y-4.1454
X7.776Y-4.3816
X7.776Y-4.5588
X7.7765Y-4.8066
X7.7765Y-4.9837
X7.9138Y-4.3816
X7.9138Y-4.5588
X7.9138Y-4.8066
X7.9138Y-4.9837
X7.9232Y-3.5433
X7.9232Y-3.7205
X7.9729Y-5.2396
X7.9729Y-5.4168
X7.9729Y-5.6612
X7.9729Y-5.8383
X8.1107Y-5.6612
X8.1107Y-5.8383
X8.1697Y-4.3816
X8.1697Y-4.5588
X8.1697Y-4.8066
X8.1697Y-4.9837
X8.3075Y-4.3816
X8.3075Y-4.5588
X8.308Y-4.8066
X8.308Y-4.9837
X8.3666Y-5.6612
X8.3666Y-5.8383
X8.5634Y-4.3816
X8.5634Y-4.5588
X8.5639Y-4.8066
X8.5639Y-4.9837
T0
M30
