M48
; DRILL file {KiCad (7.0.0-0)} date Friday, 08 December 2023, 16:48:59
; FORMAT={-:-/ absolute / inch / decimal}
; #@! TF.CreationDate,2023-12-08T16:48:59+03:00
; #@! TF.GenerationSoftware,Kicad,Pcbnew,(7.0.0-0)
; #@! TF.FileFunction,Plated,1,2,PTH
FMAT,2
INCH
; #@! TA.AperFunction,Plated,PTH,ViaDrill
T1C0.0157
; #@! TA.AperFunction,Plated,PTH,ComponentDrill
T2C0.0276
; #@! TA.AperFunction,Plated,PTH,ComponentDrill
T3C0.0315
; #@! TA.AperFunction,Plated,PTH,ComponentDrill
T4C0.0354
; #@! TA.AperFunction,Plated,PTH,ComponentDrill
T5C0.0394
; #@! TA.AperFunction,Plated,PTH,ComponentDrill
T6C0.0433
%
G90
G05
T1
X1.9906Y-3.375
X2.0212Y-3.2374
X2.27Y-3.755
X2.36Y-3.235
X2.672Y-3.0797
X2.8062Y-3.5016
X2.87Y-3.2352
X3.0544Y-3.0603
X3.3818Y-2.9937
X3.6205Y-3.686
X3.67Y-3.145
X3.7219Y-3.1131
X3.785Y-3.099
X3.99Y-5.5
X4.0143Y-3.1984
X4.452Y-4.5036
X4.5038Y-3.1516
X4.5384Y-3.6741
X4.7817Y-4.7283
X4.7935Y-5.5037
X4.8085Y-4.9122
X5.3731Y-5.7855
X5.6217Y-4.1023
X5.7387Y-5.6727
X5.9155Y-5.6021
X5.9203Y-5.5036
X6.1247Y-4.322
X6.2467Y-5.3345
X6.349Y-4.4774
X6.7646Y-4.4575
X6.86Y-5.04
X6.9627Y-4.7165
X7.055Y-4.675
X7.6111Y-4.1023
X7.7066Y-4.1127
X7.7477Y-5.7597
X7.7598Y-4.7178
X8.2199Y-4.257
T2
X2.7953Y-5.5661
X2.7953Y-5.8661
X2.8937Y-5.5661
X2.8937Y-5.8661
X2.9921Y-5.5661
X2.9921Y-5.8661
X3.0906Y-5.5665
X3.0906Y-5.8665
X5.315Y-5.5563
X5.315Y-5.8563
X5.4134Y-5.5563
X5.4134Y-5.8563
X5.5118Y-5.5563
X5.5118Y-5.8563
X5.6102Y-5.5563
X5.6102Y-5.8563
X5.7087Y-5.5563
X5.7087Y-5.8563
X6.6831Y-5.5587
X6.6831Y-5.8587
X6.7815Y-5.5587
X6.7815Y-5.8587
X6.8799Y-5.5587
X6.8799Y-5.8587
X6.9783Y-5.5587
X6.9783Y-5.8587
X7.0768Y-5.5587
X7.0768Y-5.8587
X7.9921Y-3.8634
X7.9921Y-4.1634
X8.0906Y-3.8638
X8.0906Y-4.1638
X8.189Y-3.8634
X8.189Y-4.1634
X8.2874Y-3.8634
X8.2874Y-4.1634
X8.3858Y-3.8634
X8.3858Y-4.1634
X8.4843Y-3.8632
X8.4843Y-4.1632
T3
X1.9124Y-3.0091
X1.9124Y-3.3091
X2.0124Y-3.0091
X2.0124Y-3.3091
X2.1124Y-3.0091
X2.1124Y-3.3091
X2.2124Y-3.0091
X2.2124Y-3.3091
X2.3124Y-3.0091
X2.3124Y-3.3091
X2.4124Y-3.0091
X2.4124Y-3.3091
X2.5124Y-3.0091
X2.5124Y-3.3091
X2.6124Y-3.0091
X2.6124Y-3.3091
X2.7124Y-3.0091
X2.7124Y-3.3091
X2.8124Y-3.0091
X2.8124Y-3.3091
X2.9528Y-3.189
X2.9528Y-3.2874
X3.5389Y-3.01
X3.5389Y-3.31
X3.6389Y-3.01
X3.6389Y-3.31
X3.7389Y-3.01
X3.7389Y-3.31
X3.8389Y-3.01
X3.8389Y-3.31
X3.9389Y-3.01
X3.9389Y-3.31
X4.0389Y-3.01
X4.0389Y-3.31
X4.1389Y-3.01
X4.1389Y-3.31
X4.2389Y-3.01
X4.2389Y-3.31
X4.405Y-3.01
X4.405Y-3.31
X4.505Y-3.01
X4.505Y-3.31
X4.605Y-3.01
X4.605Y-3.31
X4.705Y-3.01
X4.705Y-3.31
X4.805Y-3.01
X4.805Y-3.31
X4.905Y-3.01
X4.905Y-3.31
X5.005Y-3.01
X5.005Y-3.31
X5.105Y-3.01
X5.105Y-3.31
X5.3996Y-3.0096
X5.3996Y-3.3096
X5.4996Y-3.0096
X5.4996Y-3.3096
X5.5996Y-3.0096
X5.5996Y-3.3096
X5.6996Y-3.0096
X5.6996Y-3.3096
X5.7996Y-3.0096
X5.7996Y-3.3096
X5.8996Y-3.0096
X5.8996Y-3.3096
X5.9996Y-3.0096
X5.9996Y-3.3096
X6.0996Y-3.0096
X6.0996Y-3.3096
X6.3Y-3.22
X6.4Y-3.22
X6.5Y-3.22
X6.6Y-3.22
X6.7Y-3.22
X6.8Y-3.22
X6.9Y-3.22
X7.0Y-3.22
X7.1Y-3.22
T4
X8.1486Y-3.6417
X8.2486Y-3.6417
X8.3553Y-3.6417
X8.4553Y-3.6417
T5
X3.185Y-3.045
X3.185Y-3.145
X3.185Y-3.245
X3.285Y-3.045
X3.285Y-3.145
X3.285Y-3.245
X7.9508Y-3.2274
X8.0508Y-3.2274
X8.1508Y-3.2274
X8.2508Y-3.2274
T6
X1.9094Y-3.9682
X1.9094Y-4.1454
X1.9094Y-4.8147
X1.9094Y-4.9919
X1.9094Y-5.2379
X1.9094Y-5.4151
X1.9099Y-3.545
X1.9099Y-3.7222
X1.9099Y-4.3915
X1.9099Y-4.5686
X1.9099Y-5.6612
X1.9099Y-5.8383
X2.1654Y-3.9682
X2.1654Y-4.1454
X2.1654Y-4.8147
X2.1654Y-4.9919
X2.1654Y-5.2379
X2.1654Y-5.4151
X2.1658Y-3.545
X2.1658Y-3.7222
X2.1658Y-4.3915
X2.1658Y-4.5686
X2.1658Y-5.6612
X2.1658Y-5.8383
X2.3627Y-3.5431
X2.3627Y-3.7202
X2.3627Y-3.9682
X2.3627Y-4.1454
X2.3627Y-4.8147
X2.3627Y-4.9919
X2.3627Y-5.6612
X2.3627Y-5.8383
X2.53Y-4.3816
X2.53Y-4.5588
X2.53Y-5.2379
X2.53Y-5.4151
X2.6186Y-3.5431
X2.6186Y-3.7202
X2.6186Y-3.9682
X2.6186Y-4.1454
X2.6186Y-4.8147
X2.6186Y-4.9919
X2.6186Y-5.6612
X2.6186Y-5.8383
X2.7564Y-3.5433
X2.7564Y-3.7205
X2.7564Y-3.9682
X2.7564Y-4.1454
X2.7564Y-4.8147
X2.7564Y-4.9919
X2.7859Y-4.3816
X2.7859Y-4.5588
X2.7859Y-5.2379
X2.7859Y-5.4151
X2.9237Y-4.3816
X2.9237Y-4.5588
X2.9237Y-5.2379
X2.9237Y-5.4151
X3.0123Y-3.5433
X3.0123Y-3.7205
X3.0123Y-3.9682
X3.0123Y-4.1454
X3.0123Y-4.8147
X3.0123Y-4.9919
X3.1501Y-3.5433
X3.1501Y-3.7205
X3.1501Y-3.9682
X3.1501Y-4.1454
X3.1501Y-4.8147
X3.1501Y-4.9919
X3.1796Y-4.3816
X3.1796Y-4.5588
X3.1796Y-5.2379
X3.1796Y-5.4151
X3.3174Y-4.3816
X3.3174Y-4.5588
X3.3174Y-5.2379
X3.3174Y-5.4151
X3.3174Y-5.6612
X3.3174Y-5.8383
X3.406Y-3.5433
X3.406Y-3.7205
X3.406Y-3.9682
X3.406Y-4.1454
X3.406Y-4.8147
X3.406Y-4.9919
X3.5438Y-3.5433
X3.5438Y-3.7205
X3.5438Y-3.9682
X3.5438Y-4.1454
X3.5438Y-4.8147
X3.5438Y-4.9919
X3.5733Y-4.3816
X3.5733Y-4.5588
X3.5733Y-5.2379
X3.5733Y-5.4151
X3.5733Y-5.6612
X3.5733Y-5.8383
X3.7111Y-4.3816
X3.7111Y-4.5588
X3.7111Y-5.2379
X3.7111Y-5.4151
X3.7997Y-3.5433
X3.7997Y-3.7205
X3.7997Y-3.9682
X3.7997Y-4.1454
X3.7997Y-4.8147
X3.7997Y-4.9919
X3.9375Y-3.5433
X3.9375Y-3.7205
X3.9375Y-3.9682
X3.9375Y-4.1454
X3.9375Y-4.8147
X3.9375Y-4.9919
X3.967Y-4.3816
X3.967Y-4.5588
X3.967Y-5.2379
X3.967Y-5.4151
X4.1048Y-4.3816
X4.1048Y-4.5588
X4.1048Y-5.2379
X4.1048Y-5.4151
X4.1934Y-3.5433
X4.1934Y-3.7205
X4.1934Y-3.9682
X4.1934Y-4.1454
X4.1934Y-4.8147
X4.1934Y-4.9919
X4.3312Y-3.5433
X4.3312Y-3.7205
X4.3312Y-3.9682
X4.3312Y-4.1454
X4.3312Y-4.8147
X4.3312Y-4.9919
X4.3607Y-4.3816
X4.3607Y-4.5588
X4.3607Y-5.2379
X4.3607Y-5.4151
X4.4985Y-4.3816
X4.4985Y-4.5588
X4.4985Y-5.2379
X4.4985Y-5.4151
X4.5871Y-3.5433
X4.5871Y-3.7205
X4.5871Y-3.9682
X4.5871Y-4.1454
X4.5871Y-4.8147
X4.5871Y-4.9919
X4.7249Y-3.5433
X4.7249Y-3.7205
X4.7249Y-3.9682
X4.7249Y-4.1454
X4.7249Y-4.8147
X4.7249Y-4.9919
X4.7544Y-4.3816
X4.7544Y-4.5588
X4.7544Y-5.2379
X4.7544Y-5.4151
X4.8922Y-4.3816
X4.8922Y-4.5588
X4.8922Y-5.2379
X4.8922Y-5.4151
X4.8922Y-5.6612
X4.8922Y-5.8383
X4.9808Y-3.5433
X4.9808Y-3.7205
X4.9808Y-3.9682
X4.9808Y-4.1454
X4.9808Y-4.8147
X4.9808Y-4.9919
X5.1186Y-3.5433
X5.1186Y-3.7205
X5.1186Y-3.9682
X5.1186Y-4.1454
X5.1186Y-4.8147
X5.1186Y-4.9919
X5.1481Y-4.3816
X5.1481Y-4.5588
X5.1481Y-5.2379
X5.1481Y-5.4151
X5.1481Y-5.6612
X5.1481Y-5.8383
X5.2859Y-4.3816
X5.2859Y-4.5588
X5.2859Y-5.2379
X5.2859Y-5.4151
X5.3745Y-3.5433
X5.3745Y-3.7205
X5.3745Y-3.9682
X5.3745Y-4.1454
X5.3745Y-4.8147
X5.3745Y-4.9919
X5.5123Y-3.5433
X5.5123Y-3.7205
X5.5123Y-3.9682
X5.5123Y-4.1454
X5.5123Y-4.8147
X5.5123Y-4.9919
X5.5418Y-4.3816
X5.5418Y-4.5588
X5.5418Y-5.2379
X5.5418Y-5.4151
X5.6796Y-4.3816
X5.6796Y-4.5588
X5.6796Y-5.2379
X5.6796Y-5.4151
X5.7682Y-3.5433
X5.7682Y-3.7205
X5.7682Y-3.9682
X5.7682Y-4.1454
X5.7682Y-4.8147
X5.7682Y-4.9919
X5.8568Y-5.6612
X5.8568Y-5.8383
X5.9055Y-3.5433
X5.9055Y-3.7205
X5.906Y-3.9682
X5.906Y-4.1454
X5.906Y-4.8147
X5.906Y-4.9919
X5.9355Y-4.3816
X5.9355Y-4.5588
X5.9355Y-5.2379
X5.9355Y-5.4151
X6.0733Y-4.3816
X6.0733Y-4.5588
X6.0733Y-5.2379
X6.0733Y-5.4151
X6.1127Y-5.6612
X6.1127Y-5.8383
X6.1614Y-3.5433
X6.1614Y-3.7205
X6.1619Y-3.9682
X6.1619Y-4.1454
X6.1619Y-4.8147
X6.1619Y-4.9919
X6.2603Y-5.6612
X6.2603Y-5.8383
X6.2997Y-3.5433
X6.2997Y-3.7205
X6.2997Y-3.9682
X6.2997Y-4.1454
X6.2997Y-4.8147
X6.2997Y-4.9919
X6.3292Y-4.3816
X6.3292Y-4.5588
X6.3292Y-5.2379
X6.3292Y-5.4151
X6.467Y-4.3816
X6.467Y-4.5588
X6.467Y-5.2379
X6.467Y-5.4151
X6.5162Y-5.6612
X6.5162Y-5.8383
X6.5556Y-3.5433
X6.5556Y-3.7205
X6.5556Y-3.9682
X6.5556Y-4.1454
X6.5556Y-4.8147
X6.5556Y-4.9919
X6.6929Y-3.5433
X6.6929Y-3.7205
X6.6934Y-3.9682
X6.6934Y-4.1454
X6.7229Y-4.3816
X6.7229Y-4.5588
X6.7229Y-5.2379
X6.7229Y-5.4151
X6.8607Y-4.3816
X6.8607Y-4.5588
X6.9488Y-3.5433
X6.9488Y-3.7205
X6.9493Y-3.9682
X6.9493Y-4.1454
X6.9886Y-4.923
X6.9886Y-5.1001
X7.0871Y-3.9682
X7.0871Y-4.1454
X7.1166Y-4.3816
X7.1166Y-4.5588
X7.2445Y-4.923
X7.2445Y-5.1001
X7.2736Y-3.5433
X7.2736Y-3.7205
X7.3233Y-5.6612
X7.3233Y-5.8383
X7.343Y-3.9682
X7.343Y-4.1454
X7.5201Y-3.9682
X7.5201Y-4.1454
X7.5201Y-4.3816
X7.5201Y-4.5588
X7.5206Y-4.8066
X7.5206Y-4.9837
X7.5295Y-3.5433
X7.5295Y-3.7205
X7.5792Y-5.6612
X7.5792Y-5.8383
X7.6673Y-3.5433
X7.6673Y-3.7205
X7.717Y-5.2396
X7.717Y-5.4168
X7.717Y-5.6612
X7.717Y-5.8383
X7.776Y-3.9682
X7.776Y-4.1454
X7.776Y-4.3816
X7.776Y-4.5588
X7.7765Y-4.8066
X7.7765Y-4.9837
X7.9138Y-4.3816
X7.9138Y-4.5588
X7.9138Y-4.8066
X7.9138Y-4.9837
X7.9232Y-3.5433
X7.9232Y-3.7205
X7.9729Y-5.2396
X7.9729Y-5.4168
X7.9729Y-5.6612
X7.9729Y-5.8383
X8.1107Y-5.6612
X8.1107Y-5.8383
X8.1697Y-4.3816
X8.1697Y-4.5588
X8.1697Y-4.8066
X8.1697Y-4.9837
X8.3075Y-4.3816
X8.3075Y-4.5588
X8.308Y-4.8066
X8.308Y-4.9837
X8.3666Y-5.6612
X8.3666Y-5.8383
X8.5634Y-4.3816
X8.5634Y-4.5588
X8.5639Y-4.8066
X8.5639Y-4.9837
T0
M30
